<?xml version="1.0" encoding="utf-8"?>
<!-- Generator: Adobe Illustrator 16.0.0, SVG Export Plug-In . SVG Version: 6.00 Build 0)  -->
<!DOCTYPE svg PUBLIC "-//W3C//DTD SVG 1.1//EN" "http://www.w3.org/Graphics/SVG/1.1/DTD/svg11.dtd">
<svg version="1.1" id="Layer_1" xmlns="http://www.w3.org/2000/svg" xmlns:xlink="http://www.w3.org/1999/xlink" x="0px" y="0px"
	 width="262px" height="330px" viewBox="720 -254.999 262 330" enable-background="new 720 -254.999 262 330" xml:space="preserve">
<path fill="none" stroke="#FFFFFF" stroke-miterlimit="10" d="M737.6,50.783h87.189v-2.875c0,0-7.143-3.283-11.082-4.104
	c-3.859-0.824-6.322-26.438-6.322-26.438s0.821-1.644,1.809-2.051c0,0-0.577-9.602-0.412-11.244c0,0,0.493-8.301,0.328-9.695
	c-0.162-1.394,0.738-1.312,0.738-1.312l-0.654-8.206l1.314-1.145c0,0-2.96-29.151-5.421-36.54c0,0,4.106,4.188,7.224,1.806
	c3.118-2.381,10.676-6.656,10.178-23.646l1.235-2.219l0.983-10.342c0,0-2.875-1.812-1.884-3.534
	c0.981-1.804,3.526-7.467,3.526-7.467l-9.441-6.241c0,0-0.738,1.641-1.232,1.975c-0.491,0.326-3.281,5.655-3.281,5.655
	s-4.679-3.607-5.091-4.43c-0.411-0.819-7.308-15.267-9.442-16.907c0,0-2.547-0.991-3.447-2.139c0,0-1.396-1.396-1.971-1.728
	c0,0-3.12-4.267-3.448-5.088c-0.328-0.819,0.081-0.656,0.247-0.982c0.162-0.333,1.15-1.56,0.49-2.218
	c-0.572-0.659-0.737-1.234-0.984-3.2c0,0-0.902-5.501-1.394-6.567l0.081-0.496h1.479c0,0-0.412-4.598-1.396-5.745l14.447-3.612
	h-15.68c0,0-0.244-0.903-1.394-2.138l11.083-7.142l-12.727,4.932c0,0-1.97-1.812-3.122-2.553l4.269-10.342l-6.65,9.107
	c0,0-1.885-0.569-4.266-0.569l-6.735-12.234l3.778,12.976c0,0-3.118,0.899-3.446,1.391l-14.204-7.054l11.575,9.685
	c0,0-0.903,1.071-0.903,1.885l-12.971,0.91l12.317,1.478c0,0,0,1.392,0.325,2.372l-8.866,2.635l10.098-0.328
	c0,0,0.084,6.154,0.328,6.647c0,0,2.138,0.163,2.385-0.244c0.163-0.493,0.081-0.331,0,0c-0.084,0.326-4.026,5.908-4.026,5.908
	s-3.531-3.364-3.859-4.186c-0.328-0.909-3.363-9.197-4.513-10.27c-1.149-1.144-1.81-4.013-2.71-7.548c0,0-5.75-14.779-6.896-18.965
	c0,0-2.544-11.494-3.204-15.267c0,0-0.737-2.55-3.69-5.094l-0.082-3.369c0,0,0.9-0.328,1.229-0.815l0.082-1.724
	c0,0,4.354-0.989,5.091-1.974c0.74-0.9,0.493-2.876-0.491-3.2c0,0-0.74-1.066-0.578-1.647c0.169-0.572,1.15-0.979,1.313-1.147
	c0.165-0.243-0.9-2.381-6.319-3.031v-2.632c0,0,1.725-5.419,3.939-6.321c0,0,1.147-1.316,1.147-2.957
	c-0.081-1.641-0.328-1.315-0.328-1.315s-0.984,1.809-1.641,2.137c-0.653,0.332-2.054,0.495-2.625,0.169
	c-0.575-0.331-0.737-0.584-0.819-1.316c-0.087-0.74-0.33-1.478-0.578-1.641c-0.328-0.162-6.979,2.211-7.304,5.411
	c-0.331,3.203-0.165,4.438,0.407,4.931c0.574,0.579,0.656,0.984,0.656,0.984v2.464c0,0-5.91,1.315-6.482,2.053
	c-0.496,0.74,0.081,1.315,0.818,1.804c0.74,0.496,0.74,1.074,0.494,1.562c-0.25,0.495-2.053,1.235-1.479,2.055
	c0.49,0.821,1.645,2.137,2.791,2.625c0,0,0.576,0.325,0.984,0.989c0,0,1.313,2.539,1.81,2.951c0,0,1.312,0.578,1.063,0.985
	c0,0-1.56,0.656-1.479,1.478c0,0-0.162,1.071,0.415,1.397c0,0,0.491,0.9,0.081,1.152c0,0-0.74,0.984-0.496,1.561
	c0,0,0.168,0.161,0.578,0.405c0.409,0.244,0.409,0.823,0.162,1.153c-0.162,0.326-0.49,1.229-0.081,1.642
	c0.409,0.406,1.149,0.572,1.315,1.314c0.081,0.735,0,6.323,0,6.323s-0.084,0.488-0.328,0.569c-0.25,0.163-0.168,0.406,0.162,0.659
	c0.328,0.244,0.988,0.493,1.068,1.145c0.082,0.577,0.082,1.806,0.163,2.218c0.165,0.335,0.247,1.315,0.737,1.976
	c0.491,0.568,1.15,1.063,1.561,0.9c0.331-0.169,0.331-0.9,0.74-0.575c0.41,0.325,1.641,19.046,6.484,25.699
	c0,0,3.039,7.386-1.394,14.039c0,0-2.3,9.029-1.231,12.147c0,0,0.163,0.909,1.723,1.234c0,0,3.038,0.406,3.282,0.903
	c0,0-0.407,1.642-0.244,2.379c0,0,0.081,2.633,1.804,3.04c0,0,1.152,0.163,1.398,0.981c0,0,1.397,12.066,2.461,13.789
	c0,0,1.316,2.55,1.973,2.632c0,0,0.246,0.325-0.164,1.233c0,0-12.729,18.965-2.872,29.803c0,0-3.45,19.618,0.819,24.793
	c0,0,1.394,27.422,3.694,29.478c0,0,3.858,18.303,5.419,24.872c0,0,4.351,16.67-5.01,23.641c0,0-7.801,0.912-9.278,3.785
	l-6.646,2.707L737.6,50.783z"/>
<path fill="none" stroke="#FFFFFF" stroke-miterlimit="10" d="M889.571,39.043h91.625v11.002h-91.625V39.043z M966.002,7.515h5.258
	v31.448h-5.258V7.515z M900.075,7.515h5.256v31.448h-5.256V7.515z M950.816-2.916h15.186v41.715h-15.186 M920.436,38.719H905.25
	V-2.997h15.186 M963.209-19.743v16.827 M907.794-19.743v16.827 M963.209-19.743h-5.495 M913.044-19.743h-5.25 M940.309-118.59
	h17.405v98.766 M913.044-19.743L913.044-19.743v-98.847h17.655 M944.991-142.893h8.288v24.303h-8.288 M926.27-118.59h-8.293v-24.303
	h8.293 M949.166-153.649v10.757 M921.589-153.649v10.757 M921.589-153.649v-3.041h27.577v3.041 M926.514-161.938h17.894v5.247
	h-17.894V-161.938z M938.085-171.875l1.974,9.938 M938.085-184.273v12.398 M932.592-171.875l-1.974,9.938 M932.592-184.273v12.398
	 M932.592-184.273v-1.641h5.493v1.641 M933.989-189.196h2.788v3.282h-2.788V-189.196z M935.047-214.067v24.871"/>
</svg>
