<?xml version="1.0" encoding="utf-8"?>
<!-- Generator: Adobe Illustrator 16.0.0, SVG Export Plug-In . SVG Version: 6.00 Build 0)  -->
<!DOCTYPE svg PUBLIC "-//W3C//DTD SVG 1.1//EN" "http://www.w3.org/Graphics/SVG/1.1/DTD/svg11.dtd">
<svg version="1.1" id="Layer_1" xmlns="http://www.w3.org/2000/svg" xmlns:xlink="http://www.w3.org/1999/xlink" x="0px" y="0px"
	 width="262px" height="330px" viewBox="436.667 -254.999 262 330" enable-background="new 436.667 -254.999 262 330"
	 xml:space="preserve">
<metadata><?xpacket begin="﻿" id="W5M0MpCehiHzreSzNTczkc9d"?>
<x:xmpmeta xmlns:x="adobe:ns:meta/" x:xmptk="Adobe XMP Core 5.3-c011 66.145661, 2012/02/06-14:56:27        ">
   <rdf:RDF xmlns:rdf="http://www.w3.org/1999/02/22-rdf-syntax-ns#">
      <rdf:Description rdf:about=""
            xmlns:xmp="http://ns.adobe.com/xap/1.0/"
            xmlns:xmpGImg="http://ns.adobe.com/xap/1.0/g/img/">
         <xmp:CreatorTool>Adobe Illustrator CS6 (Macintosh)</xmp:CreatorTool>
         <xmp:CreateDate>2016-03-17T18:32:53+01:00</xmp:CreateDate>
         <xmp:Thumbnails>
            <rdf:Alt>
               <rdf:li rdf:parseType="Resource">
                  <xmpGImg:width>256</xmpGImg:width>
                  <xmpGImg:height>100</xmpGImg:height>
                  <xmpGImg:format>JPEG</xmpGImg:format>
                  <xmpGImg:image>/9j/4AAQSkZJRgABAgEASABIAAD/7QAsUGhvdG9zaG9wIDMuMAA4QklNA+0AAAAAABAASAAAAAEA&#xA;AQBIAAAAAQAB/+4ADkFkb2JlAGTAAAAAAf/bAIQABgQEBAUEBgUFBgkGBQYJCwgGBggLDAoKCwoK&#xA;DBAMDAwMDAwQDA4PEA8ODBMTFBQTExwbGxscHx8fHx8fHx8fHwEHBwcNDA0YEBAYGhURFRofHx8f&#xA;Hx8fHx8fHx8fHx8fHx8fHx8fHx8fHx8fHx8fHx8fHx8fHx8fHx8fHx8fHx8f/8AAEQgAZAEAAwER&#xA;AAIRAQMRAf/EAaIAAAAHAQEBAQEAAAAAAAAAAAQFAwIGAQAHCAkKCwEAAgIDAQEBAQEAAAAAAAAA&#xA;AQACAwQFBgcICQoLEAACAQMDAgQCBgcDBAIGAnMBAgMRBAAFIRIxQVEGE2EicYEUMpGhBxWxQiPB&#xA;UtHhMxZi8CRygvElQzRTkqKyY3PCNUQnk6OzNhdUZHTD0uIIJoMJChgZhJRFRqS0VtNVKBry4/PE&#xA;1OT0ZXWFlaW1xdXl9WZ2hpamtsbW5vY3R1dnd4eXp7fH1+f3OEhYaHiImKi4yNjo+Ck5SVlpeYmZ&#xA;qbnJ2en5KjpKWmp6ipqqusra6voRAAICAQIDBQUEBQYECAMDbQEAAhEDBCESMUEFURNhIgZxgZEy&#xA;obHwFMHR4SNCFVJicvEzJDRDghaSUyWiY7LCB3PSNeJEgxdUkwgJChgZJjZFGidkdFU38qOzwygp&#xA;0+PzhJSktMTU5PRldYWVpbXF1eX1RlZmdoaWprbG1ub2R1dnd4eXp7fH1+f3OEhYaHiImKi4yNjo&#xA;+DlJWWl5iZmpucnZ6fkqOkpaanqKmqq6ytrq+v/aAAwDAQACEQMRAD8A9U4q7FXYq7FXkmvgHXL+&#xA;or/pEn/Ezm+wfQPc8xqf7yXvKA4r4DLbaaew6YSdNtCevox/8RGc/k+o+96nD9A9wROQbHYq7FXY&#xA;q7FXYq7FXYqwj8y0R203koagnpUV/wB95suzj9Xw/S6ftUXw/H9DCfQg/wB9r9wzZcRdTwjueg/l&#xA;siro92FAUfW22Ap/umLNV2gfWP6v6S7vssfuz/W/QGWZgOzdirsVdirsVdirsVdirsVdirsVdirs&#xA;VdirsVdirsVdiryrXrS5/TV8fTNDPIR8ixIzeYJDgHueb1ED4kveUB9Uuf8AfbfdlvEGjgL1zTkZ&#xA;NPtkYUZYkDDwIUZochuR970+IVEe5EZBsdirsVdirsVdirsVdirDfzEhkkOnlQKL6wNSB19PxPtm&#xA;x0Bri+H6XU9pxJ4fj+hhv1WbwX/gl/rmw4g6rhLPPy9iePSboPT4rpiKEHb0ox2+WavXm5j3fpLu&#xA;uzBUD/W/QGUZhOxdirsVdirsVdirsVdirsVdirsVdirsVdirsVdirsVdiryTXv8Ajt3/APzES/8A&#xA;Ezm+wfQPc8zqP7yXvKBy1oewaZ/xzbT/AIwx/wDEBnP5PqPvepw/QPcETkGx2KuxV2KuxV2KuxV2&#xA;KsK/Mj7Wm/Kf/mXmy7P/AIvh+l1Han8Px/QwvNi6ln35c/8AHIu/+Ytv+TMWartD6x/V/SXd9l/Q&#xA;f636AyvMF2TsVdirsVdirsVdirsVdirsVdirsVdirsVdirsVdirsVeSa9/x27/8A5iJf+JnN9g+g&#xA;e55nUf3kveUDlrQ9g0z/AI5tp/xhj/4gM5/J9R971OH6B7gicg2OxV2KuxV2KuxV2KuxVhX5kfa0&#xA;35T/APMvNl2f/F8P0uo7U/h+P6GF5sXUs+/Ln/jkXf8AzFt/yZizVdofWP6v6S7vsv6D/W/QGV5g&#xA;uydirsVdirsVdirsVdirsVdirsVdirsVdirsVdirFvO2uanpktitlKIxOsxkqqtXgY+P2gf5jmdo&#xA;8MZg8XSv0uu1+onjMeE87/QxiXzt5kWJ2F0KqpI/dx9h/q5mjR475OuOvzVz+wLNdsbo61fEJs08&#xA;jDcdCxI74cMxwD3MdRjPiS96A+oXf8n4j+uW8YafDKdXXmnzBZztaRziNIAsYTghpxUDqQcxo6bH&#xA;IXXNy5azLE8IPL3I3y15o1u91u2tbmcPBLz5rwQfZjZhuAD1GV6jTQjAkDdu0uryTyCJOx/UzvNW&#xA;7l2KuxV2KuxVL/MN3cWmjXVzbtwmjUFHoDQlgOhqO+XYIiUwDyaNTMxxkjm8/wD8ZeZf+W0/8i4f&#xA;+aM2v5TH3fe6T89m/nfYP1Naje6lqumWk91IJpI57iMMeCfDwhYCg4+JxxwjCRA7h+lGXJPJAGRv&#xA;c/71LPqs3gv/AAS/1y7iDj8JTWz1PVdJ0ZfqkwhM93MXIEb1CwwgdQ1O+UTxwyT3F0B95cnHmnjx&#xA;+k1cj3d0Wv8AGXmX/ltP/IuH/mjD+Ux933r+ezfzvsH6npGmzSTadazSHlJLDG7npVmUE9M0+QVI&#xA;gd7vsUiYAnuRGQbHYq7FXYq7FXYq7FXYq7FXYq7FXYq7FXYqwf8AMn+/0v8A1bj9cWbPs/lL4fpd&#xA;P2rzj8f0MKn/ALiT/VP6s2MebqZcimWvf8du/wD+YiX/AImcpwfQPc5Go/vJe8oHLWhXv/8Aet/o&#xA;/UMjDkzyc0y8m/8AKS2Xzk/5MvlOr/uz+OrkaH++j8fuL1DNI9E7FXYq7FXYqlPmz/lHb3/UH/Ex&#xA;mRpf7wOLrf7qTyzN284i5f8AjkWv/MTc/wDJu3ysfWfcP982n6B/Wl90UJljUiz/AMcWP/mMn/5M&#xA;2+V/x/5o++Tb/kx/WP3RQmWNT17Rv+ORY/8AMPF/xAZoMv1n3l6jB/dx9wReVtrsVdirsVdirsVd&#xA;irsVdirsVdirsVdirsVYP+ZP9/pf+rcfrizZ9n8pfD9Lp+1ecfj+hhU/9xJ/qn9WbGPN1MuRTLXv&#xA;+O3f/wDMRL/xM5Tg+ge5yNR/eS95QOWtCvf/AO9b/R+oZGHJnk5pl5N/5SWy+cn/ACZfKdX/AHZ/&#xA;HVyND/fR+P3F6hmkeidirsVdirsVSnzZ/wAo7e/6g/4mMyNL/eBxdb/dSeWZu3nEXL/xyLX/AJib&#xA;n/k3b5WPrPuH++bT9A/rS+6KEyxqRZ/44sf/ADGT/wDJm3yv+P8AzR98m3/Jj+sfuihMsanr2jf8&#xA;cix/5h4v+IDNBl+s+8vUYP7uPuCLyttdirsVdirsVdirsVdirsVdirsVdirsVdirDvzBsb66m042&#xA;1vLOEWcOYkZ+PIxUrxBpWhzY6GcYiVmuX6XVdpY5SMaBPP8AQxCbRNaMLgafdElSAPRk8P8AVzPG&#xA;aF/UPm6uWDJX0y+RR2uaZqj6zfOljcujTyFXSCVlILEgghSDlWHJHgG45d4btRimckqjLmehQP6K&#xA;1f8A6t13/wBI83/NOW+LD+dH5hp8Gf8ANl8iir7RtYN05WwuGBpQiGQj7I7gZCGWFcx82yeDJf0n&#xA;5FMPKel6nD5htJZrOeKJfU5SPE6qKxOBUkAdTlWqyROMgEfgt+jwzGUEggb9PIvRs07vnYq7FXYq&#xA;7FUs8zQzTaFeRQo0kjIOKICzGjA7AZfpiBkBLj6uJOIgPNf0LrP/AFb7n/kTJ/zTm48aH84fN5/w&#xA;Mn82XyKKk0fV/wBFWyCxuOYuLhivpSVAZIACRStDxOQGWHEdxyHX3tpwT4B6TzPQ90UL+hdZ/wCr&#xA;fc/8iZP+acn40P5w+bV4GT+bL5FFHR9X/Q8afUbjmLuZinpPy4mKAA0pWhKnIeLDj5jkOvmW3wJ+&#xA;H9J+o9D3RQv6F1n/AKt9z/yJk/5pyfjQ/nD5tXgZP5svkXqelI8el2aOpV0gjVlIoQQgBBGaPKbk&#xA;fe9JhFQAPcEVkGx2KuxV2KuxV2KuxV2KuxV2KuxV2KuxV2KoXVbt7PS7y7jAZ7eCSVFboSiFgDT5&#xA;ZPFHikB3lrzT4YGQ6Al57e+fPMUkTtHJFblVJX0oweg7+oZM20NFjB33dHk7RykbED4frtAa+Adc&#xA;v6iv+kSf8TOW4PoHuaNT/eS95QHFfAZbbTTIW8369ZzelHMrxRBVSORFK0CjYleLf8NmJ+VxyFkO&#xA;d+dyxNA7Mv8AKmt3WsWE1xcoiSRTGICMEAgIj13Lfz5garCMcgB3O00eoOWJJ6GvsCdZjOW7FXYq&#xA;7FXYq7FWCa75z1mDUbm0t/SijhkKK/As5ptuWJX/AIXNph0kDEE3u6bUa7IJmIoUkmr6hd6np1nN&#xA;fuLiRJ7lEZlQUUJAaUUKOpOZOKAhIiO2w/S4ebJLJAGW+8v96lHoQf77X7hl/EXG4R3J5pmq3+l6&#xA;FWwlEHqX0vqAIjA0ghp9oHx7ZjZMUZz9W/p/SXLxZpY8fpNeo/dFPPLXm/V73VbewuhE8cvMGQIV&#xA;k+FGcdG4/s/y5jajSwjEyFuZpdbOcxGVbs1zWu3dirsVdirsVdirsVdirsVdirsVdirsVdirsVS/&#xA;zH/yj2qf8wk//Jpsu0/95H+sPvaNV/dS/qn7nkU/9xJ/qn9Wb6PN5iXIplr3/Hbv/wDmIl/4mcpw&#xA;fQPc5Go/vJe8oHLWhXv/APet/o/UMjDkzyc2b/lz/wAci7/5i2/5MxZrO0PrH9X9Jdx2X9B/rfoD&#xA;K8wXZOxV2KuxV2KuxV5P5i/47t9/xmf9eb3T/QPc8zqf7yXvUZf+ORa/8xNz/wAm7fJD6z7h/vmJ&#xA;+gf1pfdFCZY1I3/pQJ/zHS/8mIcr/wAp/mj7y3f5P/OP3RRnk3/lJbL5yf8AJl8r1f8Adn8dW3Q/&#xA;30fj9xeoZpHonYq7FXYq7FXYq7FXYq7FXYq7FXYq7FXYq7FVG+tI7yyuLSQssdxG8TstOQV1Kkio&#xA;Irv4ZKEuGQI6MMkBKJieoph13+WxeN1tr+lQQqyx16+LKw/4jmwh2h3h1c+yrG0vsSHXrWb9NXxo&#xA;N55CPiXoWJHfMrBIcA9zhaiB8SXvKA+qzeC/8Ev9ct4g0cJZcvkGe6f6xLeLEsiqwjWPmd1FatyA&#xA;2+nMA64R2AdoOzTLcypkmg6HBo1o9vDK8vqyGV2en2iqr8IAFBRPfMPPmOQ2XP02nGKNA3ZtMspc&#xA;h2KuxV2KuxV2KsY1XyLaXt1LdR3UkMszFnVgrpU+AHBv+GzNxa0xAFcnXZuzozkZAkEpBr3lq502&#xA;ztLZZ4riss8nN3ittmWFQKSyCv2OxzLwagTJNVsO89/cHC1OlOOIFg7nuHd3lJP0def8Uf8ASXaf&#xA;9VsyPEHn/pZfqcTwpeX+mj+tkGieVrjU9GaJriO3Md5I9UMdyCGhiHWKQqD8Pc5i5tSITur9Pu6n&#xA;vDm6fRnJjqwPUe49B3FPtF8lWmm3kV6bmSa4i5cRRVj+JSu60Zv2j+1mLm1hmOGtnNwaCOOQlZJD&#xA;I8w3PdirsVdirsVdirsVdirsVdirsVdirsVdirsVdirsVeXa4NI/TN7zkug/rycwsMTLXka0JmUk&#xA;V9s3eHj4By5d5/U87qODxJfVz7h/xSCpov8Avy8/5EQ/9lGWev8Ao/M/8S0/u++XyH/FPV9P4fUL&#xA;b06mP0k4FtjTiKVpmjyfUfe9LirhFdyvkGbsVdirsVdirsVdirsVYb+Yghrp/qFgf33HiART93Wt&#xA;SM2Ogv1fD9Lqe069N+f6GG0tf5pP+BH9c2G7qtmefl76X6JuvTLEfWm5cgBv6UfShPbNXr74xfd+&#xA;ku67MrgNfzv0BlGYTsXYq7FXYq7FXYq7FXYq7FXYq7FXYq7FXYq7FXYq7FXYq8n170f03f8A2v7+&#xA;SvTryNc3uC+Ae55rU14kveUB+5/yvwy3dp2ev6dx/R9rxrx9GPjXrTiOuaDJ9R970+L6B7kRkGx2&#xA;KuxV2KuxV2KuxV2KsO/MP6t/uP8AW58v33HhSlPgrWv0ZsNBfqry/S6rtOvTfn+hh3+gf8W/8Lmx&#xA;9TqvT5s7/L70P0Tdejzp9ablzp19KPpTtSmavXXxi+79Jdz2bXAa/nfoDJ8wnYuxV2KuxV2KuxV2&#xA;KuxV2KuxV2KuxV2KuxV//9k=</xmpGImg:image>
               </rdf:li>
            </rdf:Alt>
         </xmp:Thumbnails>
      </rdf:Description>
      <rdf:Description rdf:about=""
            xmlns:xmpTPg="http://ns.adobe.com/xap/1.0/t/pg/"
            xmlns:stDim="http://ns.adobe.com/xap/1.0/sType/Dimensions#"
            xmlns:xmpG="http://ns.adobe.com/xap/1.0/g/">
         <xmpTPg:MaxPageSize rdf:parseType="Resource">
            <stDim:w>262.000000</stDim:w>
            <stDim:h>330.000000</stDim:h>
            <stDim:unit>Pixels</stDim:unit>
         </xmpTPg:MaxPageSize>
         <xmpTPg:NPages>1</xmpTPg:NPages>
         <xmpTPg:HasVisibleTransparency>False</xmpTPg:HasVisibleTransparency>
         <xmpTPg:HasVisibleOverprint>False</xmpTPg:HasVisibleOverprint>
         <xmpTPg:PlateNames>
            <rdf:Seq>
               <rdf:li>Cyan</rdf:li>
               <rdf:li>Magenta</rdf:li>
               <rdf:li>Yellow</rdf:li>
            </rdf:Seq>
         </xmpTPg:PlateNames>
         <xmpTPg:SwatchGroups>
            <rdf:Seq>
               <rdf:li rdf:parseType="Resource">
                  <xmpG:groupName>Default Swatch Group</xmpG:groupName>
                  <xmpG:groupType>0</xmpG:groupType>
               </rdf:li>
            </rdf:Seq>
         </xmpTPg:SwatchGroups>
      </rdf:Description>
      <rdf:Description rdf:about=""
            xmlns:dc="http://purl.org/dc/elements/1.1/">
         <dc:format>image/svg+xml</dc:format>
      </rdf:Description>
   </rdf:RDF>
</x:xmpmeta>
                                                                                                    
                                                                                                    
                                                                                                    
                                                                                                    
                                                                                                    
                                                                                                    
                                                                                                    
                                                                                                    
                                                                                                    
                                                                                                    
                                                                                                    
                                                                                                    
                                                                                                    
                                                                                                    
                                                                                                    
                                                                                                    
                                                                                                    
                                                                                                    
                                                                                                    
                                                                                                    
                           
<?xpacket end="w"?>
	</metadata>
<g>
	<g>
		<path fill="none" stroke="#FFFFFF" stroke-miterlimit="10" d="M156.934,50.782h87.189v-2.875c0,0-7.143-3.283-11.082-4.104
			c-3.859-0.824-6.322-26.438-6.322-26.438s0.821-1.644,1.809-2.051c0,0-0.577-9.602-0.412-11.244c0,0,0.493-8.301,0.328-9.695
			c-0.162-1.394,0.738-1.312,0.738-1.312l-0.654-8.206l1.314-1.145c0,0-2.96-29.151-5.421-36.54c0,0,4.106,4.188,7.224,1.806
			c3.118-2.381,10.676-6.656,10.178-23.646l1.235-2.219l0.983-10.342c0,0-2.875-1.812-1.884-3.534
			c0.981-1.804,3.526-7.467,3.526-7.467l-9.441-6.241c0,0-0.738,1.641-1.232,1.975c-0.491,0.326-3.281,5.655-3.281,5.655
			s-4.679-3.607-5.091-4.43c-0.411-0.819-7.308-15.267-9.442-16.907c0,0-2.547-0.991-3.447-2.139c0,0-1.396-1.396-1.971-1.728
			c0,0-3.12-4.267-3.448-5.088c-0.328-0.819,0.081-0.656,0.247-0.982c0.162-0.333,1.15-1.56,0.49-2.218
			c-0.572-0.659-0.737-1.234-0.984-3.2c0,0-0.902-5.501-1.394-6.567l0.081-0.496h1.479c0,0-0.412-4.598-1.396-5.745l14.447-3.612
			h-15.68c0,0-0.244-0.903-1.394-2.138l11.083-7.142l-12.727,4.932c0,0-1.97-1.812-3.122-2.553l4.269-10.342l-6.65,9.107
			c0,0-1.885-0.569-4.266-0.569l-6.735-12.234l3.778,12.976c0,0-3.118,0.899-3.446,1.391l-14.204-7.054l11.575,9.685
			c0,0-0.903,1.071-0.903,1.885l-12.971,0.91l12.317,1.478c0,0,0,1.392,0.325,2.372l-8.866,2.635l10.098-0.328
			c0,0,0.084,6.154,0.328,6.647c0,0,2.138,0.163,2.385-0.244c0.163-0.493,0.081-0.331,0,0c-0.084,0.326-4.026,5.908-4.026,5.908
			s-3.531-3.364-3.859-4.186c-0.328-0.909-3.363-9.197-4.513-10.27c-1.149-1.144-1.81-4.013-2.71-7.548
			c0,0-5.75-14.779-6.896-18.965c0,0-2.544-11.494-3.204-15.267c0,0-0.737-2.55-3.69-5.094l-0.082-3.369c0,0,0.9-0.328,1.229-0.815
			l0.082-1.724c0,0,4.354-0.989,5.091-1.974c0.74-0.9,0.493-2.876-0.491-3.2c0,0-0.74-1.066-0.578-1.647
			c0.169-0.572,1.15-0.979,1.313-1.147c0.165-0.243-0.9-2.381-6.319-3.031v-2.632c0,0,1.725-5.419,3.939-6.321
			c0,0,1.147-1.316,1.147-2.957c-0.081-1.641-0.328-1.315-0.328-1.315s-0.984,1.809-1.641,2.137
			c-0.653,0.332-2.054,0.495-2.625,0.169c-0.575-0.331-0.737-0.584-0.819-1.316c-0.087-0.74-0.33-1.478-0.578-1.641
			c-0.328-0.162-6.979,2.211-7.304,5.411c-0.331,3.203-0.165,4.438,0.407,4.931c0.574,0.579,0.656,0.984,0.656,0.984v2.464
			c0,0-5.91,1.315-6.482,2.053c-0.496,0.74,0.081,1.315,0.818,1.804c0.74,0.496,0.74,1.074,0.494,1.562
			c-0.25,0.495-2.053,1.235-1.479,2.055c0.49,0.821,1.645,2.137,2.791,2.625c0,0,0.576,0.325,0.984,0.989
			c0,0,1.313,2.539,1.81,2.951c0,0,1.312,0.578,1.063,0.985c0,0-1.56,0.656-1.479,1.478c0,0-0.162,1.071,0.415,1.397
			c0,0,0.491,0.9,0.081,1.152c0,0-0.74,0.984-0.496,1.561c0,0,0.168,0.161,0.578,0.405c0.409,0.244,0.409,0.823,0.162,1.153
			c-0.162,0.326-0.49,1.229-0.081,1.642c0.409,0.406,1.149,0.572,1.315,1.314c0.081,0.735,0,6.323,0,6.323s-0.084,0.488-0.328,0.569
			c-0.25,0.163-0.168,0.406,0.162,0.659c0.328,0.244,0.988,0.493,1.068,1.145c0.082,0.577,0.082,1.806,0.163,2.218
			c0.165,0.335,0.247,1.315,0.737,1.976c0.491,0.568,1.15,1.063,1.561,0.9c0.331-0.169,0.331-0.9,0.74-0.575
			c0.41,0.325,1.641,19.046,6.484,25.699c0,0,3.039,7.386-1.394,14.039c0,0-2.3,9.029-1.231,12.147c0,0,0.163,0.909,1.723,1.234
			c0,0,3.038,0.406,3.282,0.903c0,0-0.407,1.642-0.244,2.379c0,0,0.081,2.633,1.804,3.04c0,0,1.152,0.163,1.398,0.981
			c0,0,1.397,12.066,2.461,13.789c0,0,1.316,2.55,1.973,2.632c0,0,0.246,0.325-0.164,1.233c0,0-12.729,18.965-2.872,29.803
			c0,0-3.45,19.618,0.819,24.793c0,0,1.394,27.422,3.694,29.478c0,0,3.858,18.303,5.419,24.872c0,0,4.351,16.669-5.01,23.64
			c0,0-7.801,0.912-9.278,3.785l-6.646,2.707L156.934,50.782z"/>
		<path fill="none" stroke="#FFFFFF" stroke-miterlimit="10" d="M308.905,39.042h91.625v11.002h-91.625V39.042z M385.336,7.515
			h5.258v31.447h-5.258V7.515z M319.409,7.515h5.256v31.447h-5.256V7.515z M370.15-2.916h15.186v41.714H370.15 M339.77,38.718
			h-15.186V-2.997h15.186 M382.543-19.743v16.827 M327.128-19.743v16.827 M382.543-19.743h-5.495 M332.378-19.743h-5.25
			 M359.643-118.59h17.405v98.766 M332.378-19.743L332.378-19.743v-98.847h17.655 M364.325-142.893h8.288v24.303h-8.288
			 M345.604-118.59h-8.293v-24.303h8.293 M368.5-153.649v10.757 M340.923-153.649v10.757 M340.923-153.649v-3.041H368.5v3.041
			 M345.848-161.938h17.894v5.247h-17.894V-161.938z M357.419-171.875l1.974,9.938 M357.419-184.273v12.398 M351.926-171.875
			l-1.974,9.938 M351.926-184.273v12.398 M351.926-184.273v-1.641h5.493v1.641 M353.323-189.196h2.788v3.282h-2.788V-189.196z
			 M354.381-214.067v24.871"/>
	</g>
	<g>
		<g>
			<defs>
				<path id="SVGID_1_" d="M253.238,72.696h47.946V52.089h-47.946V72.696z M253.238,46.925h47.946V34.118h-47.946V46.925z
					 M219.002-30.744v48.848l28.899,5.013v-58.873L219.002-30.744z M307.01,23.116l28.903-5.013v-48.848l-28.903-5.013V23.116z
					 M253.238,28.942h47.946v-71.019h-47.946V28.942z M253.238-47.165h47.946v-75.284h-47.946V-47.165z M209.316-47.409h38.666
					v-91.876h-38.666V-47.409z M306.848-47.409h38.506v-91.876h-38.506V-47.409z M253.238-127.619h47.946v-73.156h-47.946V-127.619z
					 M253.238-205.941h47.946v-45.729h-47.946V-205.941z"/>
			</defs>
			<clipPath id="SVGID_2_">
				<use xlink:href="#SVGID_1_"  overflow="visible"/>
			</clipPath>
			
				<rect x="165.635" y="-266.781" clip-path="url(#SVGID_2_)" fill="none" stroke="#0482C8" stroke-width="1.02" stroke-miterlimit="10" width="237.347" height="407.708"/>
		</g>
	</g>
	<g>
		<path fill="#82C1E3" stroke="#0482C8" stroke-miterlimit="10" d="M253.238-205.941h47.946v-45.729h-47.946V-205.941z
			 M253.238-127.619h47.946v-73.156h-47.946V-127.619z M306.848-47.409h38.506v-91.876h-38.506V-47.409z M209.316-47.409h38.666
			v-91.876h-38.666V-47.409z M253.238-47.165h47.946v-75.284h-47.946V-47.165z M253.238,28.942h47.946v-71.019h-47.946V28.942z
			 M307.01,23.116l28.903-5.013v-48.848l-28.903-5.013V23.116z M219.002-30.744v48.848l28.899,5.013v-58.873L219.002-30.744z
			 M253.238,46.925h47.946V34.118h-47.946V46.925z M253.238,72.696h47.946V52.089h-47.946V72.696z"/>
	</g>
</g>
<g>
	<rect x="550.571" y="-252.184" fill="#82C1E3" stroke="#0482C8" stroke-miterlimit="10" width="47.946" height="45.729"/>
	<rect x="550.571" y="-201.288" fill="#82C1E3" stroke="#0482C8" stroke-miterlimit="10" width="47.946" height="73.156"/>
	<rect x="604.181" y="-139.798" fill="#82C1E3" stroke="#0482C8" stroke-miterlimit="10" width="38.506" height="91.876"/>
	<rect x="506.649" y="-139.798" fill="#82C1E3" stroke="#0482C8" stroke-miterlimit="10" width="38.666" height="91.876"/>
	<rect x="550.571" y="-122.962" fill="#82C1E3" stroke="#0482C8" stroke-miterlimit="10" width="47.946" height="75.284"/>
	<rect x="550.571" y="-42.589" fill="#82C1E3" stroke="#0482C8" stroke-miterlimit="10" width="47.946" height="71.021"/>
	<polygon fill="#82C1E3" stroke="#0482C8" stroke-miterlimit="10" points="604.343,22.603 633.246,17.591 633.246,-31.257 
		604.343,-36.27 	"/>
	<polygon fill="#82C1E3" stroke="#0482C8" stroke-miterlimit="10" points="516.335,-31.257 516.335,17.591 545.234,22.603 
		545.234,-36.27 	"/>
	<rect x="550.571" y="33.607" fill="#82C1E3" stroke="#0482C8" stroke-miterlimit="10" width="47.946" height="12.807"/>
	<rect x="550.571" y="51.578" fill="#82C1E3" stroke="#0482C8" stroke-miterlimit="10" width="47.946" height="20.607"/>
</g>
<path fill="none" stroke="#FFFFFF" stroke-miterlimit="10" d="M737.6,50.783h87.189v-2.875c0,0-7.143-3.283-11.082-4.104
	c-3.859-0.824-6.322-26.438-6.322-26.438s0.821-1.644,1.809-2.051c0,0-0.577-9.602-0.412-11.244c0,0,0.493-8.301,0.328-9.695
	c-0.162-1.394,0.738-1.312,0.738-1.312l-0.654-8.206l1.314-1.145c0,0-2.96-29.151-5.421-36.54c0,0,4.106,4.188,7.224,1.806
	c3.118-2.381,10.676-6.656,10.178-23.646l1.235-2.219l0.983-10.342c0,0-2.875-1.812-1.884-3.534
	c0.981-1.804,3.526-7.467,3.526-7.467l-9.441-6.241c0,0-0.738,1.641-1.232,1.975c-0.491,0.326-3.281,5.655-3.281,5.655
	s-4.679-3.607-5.091-4.43c-0.411-0.819-7.308-15.267-9.442-16.907c0,0-2.547-0.991-3.447-2.139c0,0-1.396-1.396-1.971-1.728
	c0,0-3.12-4.267-3.448-5.088c-0.328-0.819,0.081-0.656,0.247-0.982c0.162-0.333,1.15-1.56,0.49-2.218
	c-0.572-0.659-0.737-1.234-0.984-3.2c0,0-0.902-5.501-1.394-6.567l0.081-0.496h1.479c0,0-0.412-4.598-1.396-5.745l14.447-3.612
	h-15.68c0,0-0.244-0.903-1.394-2.138l11.083-7.142l-12.727,4.932c0,0-1.97-1.812-3.122-2.553l4.269-10.342l-6.65,9.107
	c0,0-1.885-0.569-4.266-0.569l-6.735-12.234l3.778,12.976c0,0-3.118,0.899-3.446,1.391l-14.204-7.054l11.575,9.685
	c0,0-0.903,1.071-0.903,1.885l-12.971,0.91l12.317,1.478c0,0,0,1.392,0.325,2.372l-8.866,2.635l10.098-0.328
	c0,0,0.084,6.154,0.328,6.647c0,0,2.138,0.163,2.385-0.244c0.163-0.493,0.081-0.331,0,0c-0.084,0.326-4.026,5.908-4.026,5.908
	s-3.531-3.364-3.859-4.186c-0.328-0.909-3.363-9.197-4.513-10.27c-1.149-1.144-1.81-4.013-2.71-7.548c0,0-5.75-14.779-6.896-18.965
	c0,0-2.544-11.494-3.204-15.267c0,0-0.737-2.55-3.69-5.094l-0.082-3.369c0,0,0.9-0.328,1.229-0.815l0.082-1.724
	c0,0,4.354-0.989,5.091-1.974c0.74-0.9,0.493-2.876-0.491-3.2c0,0-0.74-1.066-0.578-1.647c0.169-0.572,1.15-0.979,1.313-1.147
	c0.165-0.243-0.9-2.381-6.319-3.031v-2.632c0,0,1.725-5.419,3.939-6.321c0,0,1.147-1.316,1.147-2.957
	c-0.081-1.641-0.328-1.315-0.328-1.315s-0.984,1.809-1.641,2.137c-0.653,0.332-2.054,0.495-2.625,0.169
	c-0.575-0.331-0.737-0.584-0.819-1.316c-0.087-0.74-0.33-1.478-0.578-1.641c-0.328-0.162-6.979,2.211-7.304,5.411
	c-0.331,3.203-0.165,4.438,0.407,4.931c0.574,0.579,0.656,0.984,0.656,0.984v2.464c0,0-5.91,1.315-6.482,2.053
	c-0.496,0.74,0.081,1.315,0.818,1.804c0.74,0.496,0.74,1.074,0.494,1.562c-0.25,0.495-2.053,1.235-1.479,2.055
	c0.49,0.821,1.645,2.137,2.791,2.625c0,0,0.576,0.325,0.984,0.989c0,0,1.313,2.539,1.81,2.951c0,0,1.312,0.578,1.063,0.985
	c0,0-1.56,0.656-1.479,1.478c0,0-0.162,1.071,0.415,1.397c0,0,0.491,0.9,0.081,1.152c0,0-0.74,0.984-0.496,1.561
	c0,0,0.168,0.161,0.578,0.405c0.409,0.244,0.409,0.823,0.162,1.153c-0.162,0.326-0.49,1.229-0.081,1.642
	c0.409,0.406,1.149,0.572,1.315,1.314c0.081,0.735,0,6.323,0,6.323s-0.084,0.488-0.328,0.569c-0.25,0.163-0.168,0.406,0.162,0.659
	c0.328,0.244,0.988,0.493,1.068,1.145c0.082,0.577,0.082,1.806,0.163,2.218c0.165,0.335,0.247,1.315,0.737,1.976
	c0.491,0.568,1.15,1.063,1.561,0.9c0.331-0.169,0.331-0.9,0.74-0.575c0.41,0.325,1.641,19.046,6.484,25.699
	c0,0,3.039,7.386-1.394,14.039c0,0-2.3,9.029-1.231,12.147c0,0,0.163,0.909,1.723,1.234c0,0,3.038,0.406,3.282,0.903
	c0,0-0.407,1.642-0.244,2.379c0,0,0.081,2.633,1.804,3.04c0,0,1.152,0.163,1.398,0.981c0,0,1.397,12.066,2.461,13.789
	c0,0,1.316,2.55,1.973,2.632c0,0,0.246,0.325-0.164,1.233c0,0-12.729,18.965-2.872,29.803c0,0-3.45,19.618,0.819,24.793
	c0,0,1.394,27.422,3.694,29.478c0,0,3.858,18.303,5.419,24.872c0,0,4.351,16.67-5.01,23.641c0,0-7.801,0.912-9.278,3.785
	l-6.646,2.707L737.6,50.783z"/>
<path fill="none" stroke="#FFFFFF" stroke-miterlimit="10" d="M889.571,39.043h91.625v11.002h-91.625V39.043z M966.002,7.515h5.258
	v31.448h-5.258V7.515z M900.075,7.515h5.256v31.448h-5.256V7.515z M950.816-2.916h15.186v41.715h-15.186 M920.436,38.719H905.25
	V-2.997h15.186 M963.209-19.743v16.827 M907.794-19.743v16.827 M963.209-19.743h-5.495 M913.044-19.743h-5.25 M940.309-118.59
	h17.405v98.766 M913.044-19.743L913.044-19.743v-98.847h17.655 M944.991-142.893h8.288v24.303h-8.288 M926.27-118.59h-8.293v-24.303
	h8.293 M949.166-153.649v10.757 M921.589-153.649v10.757 M921.589-153.649v-3.041h27.577v3.041 M926.514-161.938h17.894v5.247
	h-17.894V-161.938z M938.085-171.875l1.974,9.938 M938.085-184.273v12.398 M932.592-171.875l-1.974,9.938 M932.592-184.273v12.398
	 M932.592-184.273v-1.641h5.493v1.641 M933.989-189.196h2.788v3.282h-2.788V-189.196z M935.047-214.067v24.871"/>
</svg>
